<svg width="240" height="240" viewBox="0 0 240 240" fill="none" xmlns="http://www.w3.org/2000/svg">
<path d="M25.8 190.098L25.6 190.298C22.9 184.398 21.2 177.698 20.5 170.298C21.2 177.598 23.1 184.198 25.8 190.098Z" fill="white"/>
<path d="M90 103.798C103.144 103.798 113.8 93.1424 113.8 79.9981C113.8 66.8537 103.144 56.1981 90 56.1981C76.8556 56.1981 66.2 66.8537 66.2 79.9981C66.2 93.1424 76.8556 103.798 90 103.798Z" fill="white"/>
<path d="M161.9 19.998H78.1C41.7 19.998 20 41.698 20 78.098V161.898C20 172.798 21.9 182.298 25.6 190.298C34.2 209.298 52.6 219.998 78.1 219.998H161.9C198.3 219.998 220 198.298 220 161.898V138.998V78.098C220 41.698 198.3 19.998 161.9 19.998ZM203.7 124.998C195.9 118.298 183.3 118.298 175.5 124.998L133.9 160.698C126.1 167.398 113.5 167.398 105.7 160.698L102.3 157.898C95.2 151.698 83.9 151.098 75.9 156.498L38.5 181.598C36.3 175.998 35 169.498 35 161.898V78.098C35 49.898 49.9 34.998 78.1 34.998H161.9C190.1 34.998 205 49.898 205 78.098V126.098L203.7 124.998Z" fill="white"/>
</svg>
